<svg width="2066" height="693" viewBox="0 0 2066 693" fill="none" xmlns="http://www.w3.org/2000/svg">
    <g clip-path="url(#paint0_diamond_19_8_clip_path)" data-figma-skip-parse="true"><g transform="matrix(-0.7175 0.127 -0.378799 -2.14007 1375.5 456.5)"><rect x="0" y="0" width="1917" height="317.448" fill="url(#paint0_diamond_19_8)" opacity="1" shape-rendering="crispEdges"/><rect x="0" y="0" width="1917" height="317.448" transform="scale(1 -1)" fill="url(#paint0_diamond_19_8)" opacity="1" shape-rendering="crispEdges"/><rect x="0" y="0" width="1917" height="317.448" transform="scale(-1 1)" fill="url(#paint0_diamond_19_8)" opacity="1" shape-rendering="crispEdges"/><rect x="0" y="0" width="1917" height="317.448" transform="scale(-1)" fill="url(#paint0_diamond_19_8)" opacity="1" shape-rendering="crispEdges"/></g></g><path d="M934.5 272L207 496.5L0 611H800L1208.5 693H1734L1689 474L2065.5 299.5L1779 0.5L1711.5 192.5L1415 337L934.5 272Z" data-figma-gradient-fill="{&#34;type&#34;:&#34;GRADIENT_DIAMOND&#34;,&#34;stops&#34;:[{&#34;color&#34;:{&#34;r&#34;:0.65098041296005249,&#34;g&#34;:0.61176472902297974,&#34;b&#34;:0.96862745285034180,&#34;a&#34;:1.0},&#34;position&#34;:0.0},{&#34;color&#34;:{&#34;r&#34;:0.38215449452400208,&#34;g&#34;:0.35913315415382385,&#34;b&#34;:0.56862747669219971,&#34;a&#34;:1.0},&#34;position&#34;:1.0}],&#34;stopsVar&#34;:[{&#34;color&#34;:{&#34;r&#34;:0.65098041296005249,&#34;g&#34;:0.61176472902297974,&#34;b&#34;:0.96862745285034180,&#34;a&#34;:1.0},&#34;position&#34;:0.0},{&#34;color&#34;:{&#34;r&#34;:0.38215449452400208,&#34;g&#34;:0.35913315415382385,&#34;b&#34;:0.56862747669219971,&#34;a&#34;:1.0},&#34;position&#34;:1.0}],&#34;transform&#34;:{&#34;m00&#34;:-1435.0001220703125,&#34;m01&#34;:-757.59808349609375,&#34;m02&#34;:2471.7990722656250,&#34;m10&#34;:253.99981689453125,&#34;m11&#34;:-4280.13378906250,&#34;m12&#34;:2469.566894531250},&#34;opacity&#34;:1.0,&#34;blendMode&#34;:&#34;NORMAL&#34;,&#34;visible&#34;:true}"/>
    <defs>
    <clipPath id="paint0_diamond_19_8_clip_path"><path d="M934.5 272L207 496.5L0 611H800L1208.5 693H1734L1689 474L2065.5 299.5L1779 0.5L1711.5 192.5L1415 337L934.5 272Z"/></clipPath><linearGradient id="paint0_diamond_19_8" x1="0" y1="0" x2="500" y2="500" gradientUnits="userSpaceOnUse">
    <stop stop-color="#D8EFE3"/>
    <stop offset="1" stop-color="#FBFBF7"/>
    </linearGradient>
    </defs>
    </svg>
    